<svg width="141" height="25" fill="none" xmlns="http://www.w3.org/2000/svg"><g clip-path="url(#clip0_259_400)"><path d="M7.709 14.876H5.663v9.554H.961V1.439h4.702v9.348h1.518l4.685-9.348h5.758l-6.55 10.5 7.095 12.49H12.46l-4.75-9.552zm27.683 1.295c0 2.695-.764 4.8-2.293 6.316-1.529 1.516-3.564 2.274-6.104 2.274s-4.57-.758-6.088-2.274c-1.518-1.515-2.277-3.62-2.277-6.316V9.73c0-2.685.76-4.79 2.277-6.316 1.518-1.537 3.542-2.306 6.071-2.306 2.53 0 4.565.769 6.105 2.306 1.54 1.526 2.31 3.631 2.31 6.316v6.442zm-4.669-6.474c0-1.642-.319-2.879-.957-3.71-.637-.843-1.567-1.264-2.788-1.264-1.232 0-2.155.416-2.771 1.248-.616.831-.924 2.073-.924 3.726v6.474c0 1.663.313 2.91.94 3.742.627.832 1.55 1.248 2.772 1.248 1.21 0 2.133-.416 2.771-1.248.638-.831.957-2.079.957-3.742V9.697zM44.45 1.44l4.306 16.88h.1l4.355-16.88h6.12v22.99h-4.669v-6.68l.396-8.937-.099-.016-4.586 15.633h-3.118L42.717 8.923l-.099.016.413 8.811v6.68h-4.67V1.439h6.088zm35.305 22.99H75.07V5.04h-7.473v19.39h-4.702V1.44h16.86v22.99zm14.435-4.88h-6.335l-1.287 4.88h-4.735l6.764-22.991h4.883l6.748 22.99h-4.735L94.19 19.55zm-5.379-3.616h4.422l-2.161-8.132h-.1l-2.16 8.132zm28.146 1.09l.049.095c.022 2.526-.605 4.431-1.881 5.716-1.276 1.284-3.156 1.926-5.642 1.926s-4.471-.726-5.956-2.179c-1.484-1.463-2.227-3.532-2.227-6.206V9.508c0-2.664.715-4.727 2.145-6.19 1.441-1.474 3.365-2.21 5.774-2.21 2.552 0 4.476.652 5.774 1.957 1.309 1.306 1.985 3.237 2.03 5.795l-.05.095h-4.52c.066-1.505-.149-2.59-.644-3.253-.495-.663-1.358-.995-2.59-.995-1.056 0-1.864.395-2.425 1.185-.561.79-.841 1.984-.841 3.584v6.9c0 1.622.297 2.827.89 3.616.606.79 1.485 1.185 2.64 1.185 1.133 0 1.919-.31 2.359-.932.451-.632.649-1.705.594-3.221h4.521z" fill="#000"/></g><defs><clipPath id="clip0_259_400"><path fill="#fff" transform="translate(.746 .984)" d="M0 0h140.217v23.985H0z"/></clipPath></defs></svg>