<svg width="80" height="10" fill="none" xmlns="http://www.w3.org/2000/svg"><g clip-path="url(#clip0_259_396)"><path d="M5.501 2.396h-1.8v6.277H2.14V2.396H.353V1.231h5.15v1.165zm2.317 3.609v2.668H6.254V1.231H9.03c.798 0 1.428.22 1.889.66.461.439.691 1.015.691 1.727 0 .716-.232 1.293-.697 1.733-.46.436-1.089.654-1.883.654H7.818zm0-1.165h1.213c.333 0 .588-.114.763-.343.176-.228.264-.518.264-.869 0-.354-.088-.647-.264-.879-.172-.235-.426-.353-.763-.353H7.818V4.84zm7.63 2.254h-2.107l-.428 1.58h-1.576l2.25-7.443h1.626l2.245 7.442h-1.575l-.434-1.58zm-1.789-1.17h1.471l-.719-2.633h-.033l-.719 2.632zm6.665-.343h-.681v3.092h-1.565V1.231h1.565v3.026h.505l1.56-3.026h1.915l-2.18 3.4 2.361 4.042h-1.9l-1.58-3.092zm8.838.695l.017.03c.007.818-.202 1.435-.626 1.85-.425.417-1.05.624-1.878.624-.827 0-1.487-.235-1.981-.705-.494-.474-.742-1.143-.742-2.009V3.843c0-.862.238-1.53.714-2.004.48-.477 1.12-.715 1.921-.715.85 0 1.49.211 1.922.634.436.422.66 1.047.675 1.875l-.016.031h-1.505c.023-.487-.049-.838-.214-1.053-.164-.215-.452-.322-.862-.322-.35 0-.62.128-.806.383-.187.256-.28.643-.28 1.16v2.234c0 .525.098.915.296 1.17.201.256.494.384.878.384.377 0 .639-.1.785-.301.15-.205.216-.552.198-1.043h1.504zm3.431 2.397V1.231h2.355c.824 0 1.466.17 1.927.511.465.341.697.849.697 1.523 0 .355-.084.67-.252.946-.168.273-.42.477-.758.613.421.092.732.292.934.598.2.307.302.667.302 1.079 0 .712-.22 1.252-.66 1.62-.435.368-1.06.552-1.877.552h-2.668zm1.565-3.281v2.12h1.103c.33 0 .575-.084.736-.255.165-.17.247-.424.247-.761 0-.355-.07-.627-.209-.818-.139-.19-.362-.286-.67-.286h-1.207zm0-1.017h.862c.318-.007.562-.092.73-.256.172-.167.258-.406.258-.716 0-.347-.088-.601-.264-.761-.175-.164-.44-.246-.796-.246h-.79v1.979zM44.215 6c0 .872-.254 1.554-.763 2.044-.509.491-1.186.736-2.031.736-.846 0-1.52-.245-2.026-.736-.505-.49-.758-1.172-.758-2.044V3.915c0-.87.253-1.55.758-2.045.505-.497 1.178-.746 2.02-.746.842 0 1.52.249 2.032.746.512.494.768 1.176.768 2.045V6zm-1.554-2.096c0-.531-.106-.932-.318-1.2-.212-.273-.521-.41-.928-.41-.41 0-.717.135-.922.404-.205.27-.307.671-.307 1.206V6c0 .538.104.942.313 1.211.208.27.516.404.922.404.402 0 .71-.135.922-.404.212-.269.318-.673.318-1.211V3.904zm7.582 2.372l.016.03c.008.818-.201 1.435-.626 1.85-.424.417-1.05.624-1.877.624s-1.488-.235-1.982-.705c-.494-.474-.741-1.143-.741-2.009V3.843c0-.862.238-1.53.714-2.004.48-.477 1.12-.715 1.921-.715.85 0 1.49.211 1.922.634.435.422.66 1.047.675 1.875l-.017.031h-1.504c.022-.487-.05-.838-.214-1.053-.165-.215-.452-.322-.862-.322-.351 0-.62.128-.807.383-.186.256-.28.643-.28 1.16v2.234c0 .525.099.915.297 1.17.2.256.494.384.878.384.377 0 .639-.1.785-.301.15-.205.216-.552.198-1.043h1.504zm5.5-3.88h-1.8v6.277h-1.56V2.396h-1.789V1.231h5.15v1.165zM61.727 6c0 .872-.254 1.554-.763 2.044-.508.491-1.185.736-2.03.736-.846 0-1.522-.245-2.027-.736-.505-.49-.757-1.172-.757-2.044V3.915c0-.87.252-1.55.757-2.045.505-.497 1.179-.746 2.02-.746.842 0 1.52.249 2.032.746.512.494.768 1.176.768 2.045V6zm-1.553-2.096c0-.531-.106-.932-.319-1.2-.212-.273-.521-.41-.927-.41-.41 0-.718.135-.923.404-.205.27-.307.671-.307 1.206V6c0 .538.104.942.313 1.211.208.27.516.404.922.404.403 0 .71-.135.922-.404.213-.269.319-.673.319-1.211V3.904zm4.814 1.677h-.68v3.092h-1.565V1.231h1.565v3.026h.505l1.559-3.026h1.916l-2.18 3.4 2.36 4.042H66.57l-1.58-3.092z" fill="#000"/><path d="M73.21 7.744a2.767 2.767 0 100-5.535 2.767 2.767 0 000 5.535z" stroke="#000" stroke-width=".2"/><path d="M72.404 5.484v.834h-.489V3.992h.868c.25 0 .447.069.59.206a.712.712 0 01.216.54.71.71 0 01-.218.542c-.144.136-.34.204-.588.204h-.38zm0-.364h.38a.282.282 0 00.238-.107.433.433 0 00.082-.272.442.442 0 00-.082-.274c-.054-.074-.133-.11-.239-.11h-.38v.763zm2.285-.072l.006.022h.01l.359-1.078h.509l-.7 1.874a1.153 1.153 0 01-.23.36.497.497 0 01-.364.125c-.023 0-.05 0-.08-.003a3.225 3.225 0 01-.074-.003l-.009-.363a1.415 1.415 0 00.112.006c.075 0 .132-.018.168-.055a.41.41 0 00.087-.176l.025-.078h-.002l-.738-1.687h.521l.4 1.056zm2.646.52l.005.01c.002.256-.063.449-.196.579-.133.13-.328.194-.587.194-.258 0-.465-.073-.619-.22-.154-.148-.231-.357-.231-.628v-.695c0-.269.074-.478.222-.626.15-.149.35-.223.601-.223.266 0 .465.066.6.198.136.132.207.327.212.586l-.006.01h-.47c.007-.153-.016-.262-.067-.33-.051-.067-.141-.1-.269-.1-.11 0-.194.04-.252.12-.059.08-.087.2-.087.362v.698c0 .164.03.286.092.366.063.08.154.12.275.12.117 0 .199-.032.245-.094.047-.064.067-.173.062-.326h.47z" fill="#2A645E"/></g><defs><clipPath id="clip0_259_396"><path fill="#fff" transform="translate(.333 .364)" d="M0 0h79.333v9.225H0z"/></clipPath></defs></svg>