<svg width="103" height="62" fill="none" xmlns="http://www.w3.org/2000/svg"><path fill-rule="evenodd" clip-rule="evenodd" d="M92.096 0L74.767 8.123l-.92.431.447.914.665 1.36a13.33 13.33 0 00-.52.112c-.496.115-1.079.273-1.675.444-.894.257-1.84.551-2.603.798a8.896 8.896 0 00-1.06-1.034 15.615 15.615 0 00-2.541-1.712c-1.962-1.068-4.474-1.95-7.072-1.95-1.616 0-3.812.399-6.15.968-1.38.336-2.835.739-4.288 1.172l.392-1.568c-.455-.114-.93-.26-1.447-.42-1.758-.545-3.983-1.234-7.46-1.234-1.647 0-3.217.816-4.543 1.545l-.443.245-.004.002c-1.233.683-2.29 1.268-3.329 1.476-1.278.256-2.835.387-4.204.387-.682 0-1.3-.033-1.798-.094a6.87 6.87 0 01-.42-.064l.477-.975.429-.877-.867-.45L11.212.018l-.92 1.775 13.753 7.132L12.47 32.577.925 26.553 0 28.326l12.455 6.499.91.474.45-.921.418-.854a24.7 24.7 0 012.386 1.313c.524.331.984.663 1.328.972.372.334.497.543.52.611.564 1.692 1.67 3.905 2.207 4.98l.013.025.1-.05a4.236 4.236 0 00.63 5.743l.534.46a4.22 4.22 0 002.503 1.017 4.233 4.233 0 001.42 3.872l.534.46a4.226 4.226 0 003.421.974A4.223 4.223 0 0031.29 56.8l.533.459a4.237 4.237 0 004.553.63c.16.939.634 1.83 1.412 2.5l.533.458a4.236 4.236 0 005.974-.446l2.673-3.104c.892.59 2.246 1.472 3.498 2.261a72.15 72.15 0 002.05 1.255c.283.164.54.307.747.411.103.052.209.102.309.141l.006.003c.06.023.262.104.495.104h.014c.58 0 3.31.002 4.67-2.718.371-.74.497-1.45.474-2.095.378.212.742.41 1.084.59.827.434 1.616.803 2.18.944 1.286.322 2.366.183 3.232-.299.844-.468 1.37-1.197 1.695-1.848.383-.765.517-1.93.364-3.018a5.89 5.89 0 00-.118-.603l.061.033c.443.24.822.44 1.109.582.142.07.274.132.386.18.055.022.12.047.186.069h.003c.041.014.187.06.364.06h.035c.557.001 2.542.004 3.921-1.375 1.292-1.293 1.372-3.123 1.376-4.199.135.057.271.112.409.163 1.76.66 4.025.933 5.796-.838 1.083-1.083 1.316-2.444 1.183-3.582-.128-1.096-.61-2.133-1.183-2.706-.172-.172-.47-.396-.82-.64.267-.616.69-1.53 1.147-2.397.51-.968.988-1.737 1.298-2.047.295-.295.958-.684 1.797-1.072a22.357 22.357 0 011.567-.648l.446.911.423.866.88-.392 14.622-6.498-.812-1.828-13.74 6.107L76.536 9.502l16.408-7.691L92.096 0zm-44.17 55.533c.875.58 2.299 1.509 3.607 2.334.748.472 1.45.904 1.988 1.216a12.996 12.996 0 00.71.388c.637-.014 2.01-.157 2.738-1.612a2.328 2.328 0 00-.354-2.636l.067-.067a151.812 151.812 0 01-4.788-3.057l1.109-1.664c1.344.896 3.47 2.268 5.47 3.467 1 .6 1.96 1.15 2.77 1.576.842.441 1.434.7 1.737.775.879.22 1.424.089 1.776-.107.375-.208.661-.563.877-.994.151-.302.287-1.032.172-1.844-.113-.801-.433-1.43-.915-1.75l.332-.5-.843-.48a682.925 682.925 0 01-7.566-4.407l1.018-1.722a682.089 682.089 0 007.542 4.393c1.28.732 2.443 1.388 3.31 1.859.436.236.788.421 1.04.546.09.044.16.077.214.101.62-.01 1.69-.097 2.382-.789.744-.744.79-1.919.79-3.083 0-.293-.06-.526-.128-.69a1.175 1.175 0 00-.1-.196c-.457-.286-.856-.558-1.173-.773l-.001-.001-.319-.216c-.543-.362-1.926-1.152-3.558-2.085l-.517-.296c-1.82-1.04-3.827-2.196-5.117-3.025l1.082-1.682c1.237.795 3.195 1.923 5.028 2.971l.551.315c1.59.91 3.035 1.735 3.64 2.138l.356.24h.001c.86.584 2.068 1.403 3.366 1.89 1.488.558 2.743.556 3.68-.38.542-.542.692-1.235.61-1.936-.087-.743-.417-1.33-.61-1.524l-.005-.004-.01-.01a4.744 4.744 0 00-.218-.172c-.143-.107-.332-.24-.566-.4a69.352 69.352 0 00-1.838-1.197 294.2 294.2 0 00-5.565-3.414c-4.225-2.54-9.075-5.37-12.133-7.079-.65-.188-1.315-.415-2.07-.672-.326-.11-.667-.227-1.03-.348-1.932-.644-2.782-1.96-3.502-3.075l-.068-.106c-.725-1.12-1.401-2.117-3.007-2.805-.773-.331-1.704-.46-2.787-.46-1.085 0-2.247.127-3.477.264l-.03.003c-1.197.133-2.462.274-3.668.274-1.218 0-2.453-.142-3.576-.623-1.102-.472-1.899-1.142-2.375-1.967-.478-.827-.584-1.724-.452-2.56.255-1.618 1.415-3.105 2.774-3.784.618-.31 4.884-1.955 9.684-3.51.777-.251 1.571-.502 2.37-.745-.359-.102-.713-.211-1.074-.322-1.727-.533-3.597-1.11-6.742-1.11-1.06 0-2.198.538-3.58 1.297l-.445.248c-1.181.658-2.533 1.41-3.902 1.684-1.43.286-3.121.426-4.596.426a17.15 17.15 0 01-2.043-.109 6.887 6.887 0 01-1.076-.208l-9.78 19.986a26.63 26.63 0 012.577 1.42c.573.362 1.135.761 1.593 1.173.43.386.887.885 1.081 1.467.418 1.252 1.186 2.87 1.755 4.024l.392-.455a4.236 4.236 0 015.974-.446l.532.459a4.224 4.224 0 011.18 1.659 4.237 4.237 0 015.522.005l.533.459a4.223 4.223 0 011.46 2.899 4.227 4.227 0 013.423.974l.533.46a4.233 4.233 0 011.41 3.935 4.222 4.222 0 012.982 1.02l.533.459a4.236 4.236 0 011.333 4.293zm-12.765-9.72c.146-.17.304-.327.47-.468a2.236 2.236 0 00-.684-2.337l-.533-.459a2.236 2.236 0 00-3.153.236l-.995 1.155a4.24 4.24 0 01-.802 1.404l-1.54 1.787a4.225 4.225 0 01-1.196.964c-.56.918-.39 2.132.452 2.857l.533.459a2.237 2.237 0 002.571.245c.15-.291.337-.57.56-.83l4.317-5.014zm-2.566 9.471a2.236 2.236 0 01-.683-2.337c.166-.141.323-.297.47-.467l4.316-5.014c.224-.26.41-.538.56-.83.8-.458 1.834-.39 2.572.246l.533.459a2.236 2.236 0 01.235 3.153l-4.317 5.014a2.236 2.236 0 01-3.153.235l-.533-.459zM28.454 42.98a2.235 2.235 0 00-.742-2.094l-.532-.46a2.236 2.236 0 00-3.154.236l-1.539 1.788c-.805.935-.7 2.347.236 3.153l.533.459a2.235 2.235 0 002.181.422l3.017-3.504zm44.275-7.665a590.56 590.56 0 00-7.981-4.71h.155c3.241 0 5.98-1.146 7.013-1.766l-1.029-1.715c-.772.463-3.16 1.482-5.984 1.482-1.843 0-2.98-.131-4.035-.38-.828-.194-1.607-.46-2.663-.819-.338-.115-.703-.24-1.108-.374-1.256-.419-1.769-1.205-2.523-2.37-.764-1.181-1.713-2.621-3.898-3.558-1.122-.48-2.357-.622-3.575-.622-1.206 0-2.47.14-3.669.274l-.029.003c-1.23.137-2.392.265-3.477.265-1.084 0-2.015-.13-2.788-.461-.792-.34-1.214-.753-1.431-1.13-.217-.374-.28-.797-.209-1.247.151-.954.887-1.904 1.694-2.308.465-.232 4.593-1.836 9.405-3.395 2.39-.774 4.92-1.528 7.213-2.086 2.316-.565 4.316-.911 5.678-.911 2.168 0 4.349.743 6.115 1.706.878.478 1.633 1 2.213 1.486.597.502.948.917 1.087 1.167l.403.726.787-.263c.803-.268 2.062-.67 3.223-1.003a33.476 33.476 0 011.577-.419c.484-.112.756-.151.84-.151v-.325l9.686 19.792c-.465.177-.998.395-1.522.638-.84.388-1.8.901-2.372 1.473-.556.556-1.161 1.593-1.654 2.53-.409.776-.79 1.583-1.07 2.208l-.468-.298a295.37 295.37 0 00-5.604-3.44zm-18.42 24.191h-.002a.196.196 0 01.002 0zm-9.553-7.21l.533.46a2.236 2.236 0 01.235 3.153l-2.745 3.187a2.236 2.236 0 01-3.153.236l-.533-.46a2.236 2.236 0 01-.235-3.152l2.745-3.188a2.236 2.236 0 013.152-.235z" fill="#000"/></svg>