<svg width="38" height="29" fill="none" xmlns="http://www.w3.org/2000/svg"><g stroke="#000" stroke-width="1.4"><path d="M22.735 14.5l-6.365 3.637v-7.274l6.365 3.637z" fill="#000" stroke-linecap="round" stroke-linejoin="round"/><path d="M.91 15.787v-2.574c0-5.266 0-7.899 1.647-9.593s4.24-1.767 9.425-1.914c2.457-.07 4.967-.12 7.116-.12 2.148 0 4.658.05 7.115.12 5.185.147 7.778.22 9.425 1.914 1.647 1.694 1.647 4.327 1.647 9.593v2.574c0 5.266 0 7.899-1.647 9.592-1.647 1.695-4.24 1.768-9.425 1.915-2.457.07-4.967.12-7.116.12-2.148 0-4.658-.05-7.115-.12-5.186-.147-7.778-.22-9.425-1.915C.91 23.686.91 21.053.91 15.787z"/></g></svg>